<svg viewBox="0 0 640 240" xmlns="http://www.w3.org/2000/svg">
  <style>
    .rect-bleu{fill: #80d8ff; stroke: black;}
    .debug{fill:#ff0000;}
  </style>

  <defs>
    <rect id="rectBleuL" width="144"  height="32" class="rect-bleu" />
    <rect id="rectBleuR" width="48" height="32" class="rect-bleu" />
  </defs>

  <!-- Debugging background - class could be "debug" or "" -->
  <rect width="100%" height="100%" fill="None" class="" />

  <!-- Contents -->
  <g transform="translate(192 0)">
    <!-- Left rectangles -->
    <g transform="translate(96 0)">
      <use href="#rectBleuL" y="48" />
      <use href="#rectBleuL" y="96" />
      <use href="#rectBleuL" y="144" />
      <use href="#rectBleuL" y="192" />
    </g>

    <!-- Arrows -->
    <g transform="translate(240 16)">
      <line x1="0" x2="112" stroke="black" y1="144" y2="48" />
      <path d="M 112 48  l -9.6 3.0  a 10 10, 0, 0 0, 4.8 5.6 Z" />

      <line x1="0" x2="112" stroke="black" y1="144" y2="96" />
      <path d="M 112 96  l -10 0  a 10 10, 0, 0 0, 3.6 7.2 Z" />

      <line x1="0" x2="112" stroke="black" y1="144" y2="144" />
      <path d="M 112 144  l -9.2 -4.0  a 10 10, 0, 0 0, 0.0 8.0 Z" />

      <line x1="0" x2="112" stroke="black" y1="144" y2="192" />
      <path d="M 112 192  l -6.4 -7.2  a 10 10, 0, 0 0, -3.6 7.2 Z" />
    </g>

    <!-- Right rectangles -->
    <g transform="translate(352 0)">
      <use href="#rectBleuR" y="48" />
      <use href="#rectBleuR" y="96" />
      <use href="#rectBleuR" y="144" />
      <use href="#rectBleuR" y="192" />
    </g>

    <!-- Array names -->
    <g
        transform="translate(200 32)" text-anchor="middle"
        font-family="monospace" font-size="24" font-weight="bold">
      <text x="-32">a</text>
      <text x="176">b</text>
    </g>

    <!-- Process IDs -->
    <g
        transform="translate(-152 20)" alignment-baseline="middle"
        font-family="Arial" font-size="16" font-style="italic">
      <text y="48" >Processus 0</text>
      <text y="96" >Processus 1</text>
      <text y="144">Processus 2 (racine)</text>
      <text y="192">Processus 3</text>
    </g>

    <!-- Array values on left -->
    <g
        transform="translate(88 24)" alignment-baseline="middle" text-anchor="middle"
        font-family="Arial" font-size="20">
      <text y="48"><tspan x="80">?</tspan></text>
      <text y="96"><tspan x="80">?</tspan></text>
      <text y="144">
        <tspan x="32">5</tspan><tspan x="64">8</tspan><tspan x="96">3</tspan><tspan x="128">12</tspan>
      </text>
      <text y="192"><tspan x="80">?</tspan></text>
    </g>

    <!-- Array values on right -->
    <g
        transform="translate(376 24)" alignment-baseline="middle" text-anchor="middle"
        font-family="Arial" font-size="20">
      <text y="48" >5</text>
      <text y="96" >8</text>
      <text y="144">3</text>
      <text y="192">12</text>
    </g>
  </g>
</svg>
