<svg version="1.1" viewBox="0.0 0.0 960.0 540.0" fill="none" stroke="none" stroke-linecap="square" stroke-miterlimit="10" xmlns:xlink="http://www.w3.org/1999/xlink" xmlns="http://www.w3.org/2000/svg"><clipPath id="g127b8747e90_1_134.0"><path d="m0 0l960.0 0l0 540.0l-960.0 0l0 -540.0z" clip-rule="nonzero"/></clipPath><g clip-path="url(#g127b8747e90_1_134.0)"><path fill="#ffffff" d="m0 0l960.0 0l0 540.0l-960.0 0z" fill-rule="evenodd"/><path fill="#013d5b" d="m0 0l960.0 0l0 540.0l-960.0 0z" fill-rule="evenodd"/><path fill="#000000" fill-opacity="0.0" d="m48.0 -0.36220473l864.0 0l0 540.72437l-864.0 0z" fill-rule="evenodd"/><path fill="#ffffff" d="m71.109375 51.197792l-6.1875 -20.15625l-0.15625 0q0.046875 0.71875 0.125 2.171875q0.078125 1.4375 0.140625 3.078125q0.078125 1.640625 0.078125 2.953125l0 11.953125l-4.875 0l0 -25.703125l7.421875 0l6.078125 19.65625l0.109375 0l6.453125 -19.65625l7.40625 0l0 25.703125l-5.078125 0l0 -12.171875q0 -1.203125 0.046875 -2.78125q0.046875 -1.59375 0.109375 -3.015625q0.078125 -1.4375 0.109375 -2.15625l-0.15625 0l-6.625 20.125l-5.0 0zm30.69336 -20.0625q3.953125 0 6.0625 1.734375q2.109375 1.71875 2.109375 5.234375l0 13.09375l-3.734375 0l-1.046875 -2.671875l-0.140625 0q-0.84375 1.046875 -1.71875 1.71875q-0.875 0.671875 -2.015625 0.984375q-1.140625 0.328125 -2.78125 0.328125q-1.734375 0 -3.125 -0.671875q-1.375 -0.671875 -2.171875 -2.046875q-0.78125 -1.390625 -0.78125 -3.515625q0 -3.125 2.1875 -4.609375q2.203125 -1.484375 6.59375 -1.640625l3.421875 -0.109375l0 -0.859375q0 -1.546875 -0.8125 -2.265625q-0.8125 -0.71875 -2.25 -0.71875q-1.421875 0 -2.796875 0.40625q-1.375 0.390625 -2.75 1.015625l-1.765625 -3.625q1.5625 -0.828125 3.5 -1.296875q1.953125 -0.484375 4.015625 -0.484375zm2.859375 10.953125l-2.078125 0.078125q-2.609375 0.0625 -3.625 0.921875q-1.0 0.859375 -1.0 2.265625q0 1.234375 0.71875 1.765625q0.71875 0.515625 1.875 0.515625q1.734375 0 2.921875 -1.015625q1.1875 -1.03125 1.1875 -2.90625l0 -1.625zm18.822266 9.46875q-2.921875 0 -4.984375 -1.0625q-2.046875 -1.078125 -3.125 -3.296875q-1.0625 -2.234375 -1.0625 -5.71875q0 -3.609375 1.21875 -5.875q1.21875 -2.28125 3.390625 -3.34375q2.171875 -1.078125 5.03125 -1.078125q2.046875 0 3.53125 0.390625q1.484375 0.390625 2.59375 0.9375l-1.59375 4.15625q-1.265625 -0.515625 -2.359375 -0.84375q-1.078125 -0.328125 -2.171875 -0.328125q-1.40625 0 -2.34375 0.671875q-0.921875 0.65625 -1.390625 1.96875q-0.453125 1.3125 -0.453125 3.3125q0 1.9375 0.484375 3.234375q0.5 1.28125 1.4375 1.90625q0.9375 0.625 2.265625 0.625q1.671875 0 2.96875 -0.453125q1.3125 -0.453125 2.53125 -1.265625l0 4.59375q-1.21875 0.78125 -2.578125 1.125q-1.34375 0.34375 -3.390625 0.34375zm15.884766 -27.71875l0 5.578125q0 1.453125 -0.09375 2.78125q-0.09375 1.3125 -0.15625 1.859375l0.28125 0q0.640625 -1.015625 1.5 -1.640625q0.875 -0.640625 1.921875 -0.9375q1.0625 -0.296875 2.28125 -0.296875q2.125 0 3.703125 0.75q1.59375 0.734375 2.46875 2.328125q0.875 1.59375 0.875 4.125l0 12.8125l-5.359375 0l0 -11.484375q0 -2.109375 -0.78125 -3.171875q-0.765625 -1.078125 -2.390625 -1.078125q-1.609375 0 -2.546875 0.75q-0.921875 0.75 -1.3125 2.203125q-0.390625 1.4375 -0.390625 3.53125l0 9.25l-5.359375 0l0 -27.359375l5.359375 0zm23.660156 7.703125l0 19.65625l-5.359375 0l0 -19.65625l5.359375 0zm-2.671875 -7.703125q1.203125 0 2.0625 0.5625q0.859375 0.546875 0.859375 2.0625q0 1.5 -0.859375 2.078125q-0.859375 0.5625 -2.0625 0.5625q-1.203125 0 -2.0625 -0.5625q-0.859375 -0.578125 -0.859375 -2.078125q0 -1.515625 0.859375 -2.0625q0.859375 -0.5625 2.0625 -0.5625zm19.455078 7.34375q3.15625 0 5.0625 1.71875q1.921875 1.703125 1.921875 5.484375l0 12.8125l-5.359375 0l0 -11.484375q0 -2.109375 -0.765625 -3.171875q-0.765625 -1.078125 -2.40625 -1.078125q-2.453125 0 -3.359375 1.671875q-0.890625 1.671875 -0.890625 4.8125l0 9.25l-5.359375 0l0 -19.65625l4.09375 0l0.71875 2.515625l0.296875 0q0.640625 -1.015625 1.578125 -1.640625q0.9375 -0.640625 2.09375 -0.9375q1.15625 -0.296875 2.375 -0.296875zm20.613281 0q2.71875 0 4.6875 1.046875q1.96875 1.03125 3.03125 3.03125q1.078125 1.984375 1.078125 4.84375l0 2.609375l-12.671875 0q0.09375 2.265625 1.359375 3.5625q1.28125 1.28125 3.546875 1.28125q1.875 0 3.4375 -0.375q1.578125 -0.390625 3.21875 -1.171875l0 4.15625q-1.453125 0.71875 -3.046875 1.046875q-1.59375 0.34375 -3.859375 0.34375q-2.953125 0 -5.234375 -1.09375q-2.265625 -1.09375 -3.5625 -3.328125q-1.28125 -2.234375 -1.28125 -5.625q0 -3.4375 1.15625 -5.734375q1.171875 -2.296875 3.265625 -3.4375q2.09375 -1.15625 4.875 -1.15625zm0.03125 3.8125q-1.5625 0 -2.59375 1.0q-1.03125 1.0 -1.1875 3.140625l7.53125 0q-0.03125 -1.1875 -0.4375 -2.125q-0.40625 -0.9375 -1.234375 -1.46875q-0.8125 -0.546875 -2.078125 -0.546875zm30.527344 -3.859375q3.953125 0 6.0625 1.734375q2.109375 1.71875 2.109375 5.234375l0 13.09375l-3.734375 0l-1.046875 -2.671875l-0.140625 0q-0.84375 1.046875 -1.71875 1.71875q-0.875 0.671875 -2.015625 0.984375q-1.140625 0.328125 -2.78125 0.328125q-1.734375 0 -3.125 -0.671875q-1.375 -0.671875 -2.171875 -2.046875q-0.78125 -1.390625 -0.78125 -3.515625q0 -3.125 2.1875 -4.609375q2.203125 -1.484375 6.59375 -1.640625l3.421875 -0.109375l0 -0.859375q0 -1.546875 -0.8125 -2.265625q-0.8125 -0.71875 -2.25 -0.71875q-1.421875 0 -2.796875 0.40625q-1.375 0.390625 -2.75 1.015625l-1.765625 -3.625q1.5625 -0.828125 3.5 -1.296875q1.953125 -0.484375 4.015625 -0.484375zm2.859375 10.953125l-2.078125 0.078125q-2.609375 0.0625 -3.625 0.921875q-1.0 0.859375 -1.0 2.265625q0 1.234375 0.71875 1.765625q0.71875 0.515625 1.875 0.515625q1.734375 0 2.921875 -1.015625q1.1875 -1.03125 1.1875 -2.90625l0 -1.625zm-3.71875 -18.46875q0.53125 0.8125 1.265625 1.796875q0.75 0.984375 1.515625 1.90625q0.78125 0.921875 1.34375 1.578125l0 0.484375l-3.546875 0q-0.6875 -0.484375 -1.609375 -1.1875q-0.90625 -0.71875 -1.859375 -1.5q-0.953125 -0.78125 -1.78125 -1.5q-0.828125 -0.71875 -1.34375 -1.21875l0 -0.359375l6.015625 0zm46.98633 7.5625q3.34375 0 5.046875 1.71875q1.71875 1.703125 1.71875 5.484375l0 12.8125l-5.375 0l0 -11.484375q0 -2.109375 -0.71875 -3.171875q-0.71875 -1.078125 -2.234375 -1.078125q-2.125 0 -3.03125 1.53125q-0.890625 1.515625 -0.890625 4.34375l0 9.859375l-5.359375 0l0 -11.484375q0 -1.40625 -0.3125 -2.34375q-0.3125 -0.953125 -0.96875 -1.421875q-0.65625 -0.484375 -1.671875 -0.484375q-1.5 0 -2.359375 0.75q-0.84375 0.75 -1.203125 2.203125q-0.359375 1.4375 -0.359375 3.53125l0 9.25l-5.359375 0l0 -19.65625l4.09375 0l0.71875 2.515625l0.296875 0q0.609375 -1.015625 1.515625 -1.640625q0.90625 -0.640625 1.984375 -0.9375q1.09375 -0.296875 2.21875 -0.296875q2.15625 0 3.65625 0.703125q1.515625 0.703125 2.328125 2.171875l0.46875 0q0.875 -1.515625 2.484375 -2.1875q1.609375 -0.6875 3.3125 -0.6875zm20.38086 0q2.71875 0 4.6875 1.046875q1.96875 1.03125 3.03125 3.03125q1.078125 1.984375 1.078125 4.84375l0 2.609375l-12.671875 0q0.09375 2.265625 1.359375 3.5625q1.28125 1.28125 3.546875 1.28125q1.875 0 3.4375 -0.375q1.578125 -0.390625 3.21875 -1.171875l0 4.15625q-1.453125 0.71875 -3.046875 1.046875q-1.59375 0.34375 -3.859375 0.34375q-2.953125 0 -5.234375 -1.09375q-2.265625 -1.09375 -3.5625 -3.328125q-1.28125 -2.234375 -1.28125 -5.625q0 -3.4375 1.15625 -5.734375q1.171875 -2.296875 3.265625 -3.4375q2.09375 -1.15625 4.875 -1.15625zm0.03125 3.8125q-1.5625 0 -2.59375 1.0q-1.03125 1.0 -1.1875 3.140625l7.53125 0q-0.03125 -1.1875 -0.4375 -2.125q-0.40625 -0.9375 -1.234375 -1.46875q-0.8125 -0.546875 -2.078125 -0.546875zm6.609375 -11.375l0 0.359375q-0.5 0.5 -1.328125 1.21875q-0.828125 0.71875 -1.78125 1.5q-0.9375 0.78125 -1.859375 1.5q-0.90625 0.703125 -1.59375 1.1875l-3.578125 0l0 -0.484375q0.578125 -0.65625 1.34375 -1.578125q0.765625 -0.921875 1.515625 -1.90625q0.765625 -0.984375 1.28125 -1.796875l6.0 0zm29.597656 7.5625q3.34375 0 5.046875 1.71875q1.71875 1.703125 1.71875 5.484375l0 12.8125l-5.375 0l0 -11.484375q0 -2.109375 -0.71875 -3.171875q-0.71875 -1.078125 -2.234375 -1.078125q-2.125 0 -3.03125 1.53125q-0.890625 1.515625 -0.890625 4.34375l0 9.859375l-5.359375 0l0 -11.484375q0 -1.40625 -0.3125 -2.34375q-0.3125 -0.953125 -0.96875 -1.421875q-0.65625 -0.484375 -1.671875 -0.484375q-1.5 0 -2.359375 0.75q-0.84375 0.75 -1.203125 2.203125q-0.359375 1.4375 -0.359375 3.53125l0 9.25l-5.359375 0l0 -19.65625l4.09375 0l0.71875 2.515625l0.296875 0q0.609375 -1.015625 1.515625 -1.640625q0.90625 -0.640625 1.984375 -0.9375q1.09375 -0.296875 2.21875 -0.296875q2.15625 0 3.65625 0.703125q1.515625 0.703125 2.328125 2.171875l0.46875 0q0.875 -1.515625 2.484375 -2.1875q1.609375 -0.6875 3.3125 -0.6875zm30.13086 10.15625q0 2.453125 -0.65625 4.359375q-0.65625 1.890625 -1.921875 3.203125q-1.25 1.3125 -3.015625 1.984375q-1.765625 0.671875 -3.984375 0.671875q-2.078125 0 -3.8125 -0.671875q-1.71875 -0.671875 -3.0 -1.984375q-1.28125 -1.3125 -1.96875 -3.203125q-0.6875 -1.90625 -0.6875 -4.359375q0 -3.265625 1.15625 -5.53125q1.15625 -2.28125 3.296875 -3.453125q2.15625 -1.171875 5.125 -1.171875q2.75 0 4.890625 1.171875q2.140625 1.171875 3.359375 3.453125q1.21875 2.265625 1.21875 5.53125zm-13.59375 0q0 1.9375 0.421875 3.25q0.421875 1.3125 1.3125 1.984375q0.90625 0.671875 2.34375 0.671875q1.4375 0 2.3125 -0.671875q0.890625 -0.671875 1.296875 -1.984375q0.421875 -1.3125 0.421875 -3.25q0 -1.953125 -0.421875 -3.234375q-0.40625 -1.296875 -1.3125 -1.953125q-0.890625 -0.65625 -2.328125 -0.65625q-2.125 0 -3.09375 1.46875q-0.953125 1.453125 -0.953125 4.375zm23.382812 -9.796875l0 19.65625l-5.359375 0l0 -19.65625l5.359375 0zm-2.671875 -7.703125q1.203125 0 2.0625 0.5625q0.859375 0.546875 0.859375 2.0625q0 1.5 -0.859375 2.078125q-0.859375 0.5625 -2.0625 0.5625q-1.203125 0 -2.0625 -0.5625q-0.859375 -0.578125 -0.859375 -2.078125q0 -1.515625 0.859375 -2.0625q0.859375 -0.5625 2.0625 -0.5625zm19.267578 7.34375q0.40625 0 0.9375 0.046875q0.546875 0.03125 0.875 0.109375l-0.40625 5.015625q-0.265625 -0.078125 -0.75 -0.125q-0.484375 -0.046875 -0.828125 -0.046875q-1.046875 0 -2.015625 0.265625q-0.96875 0.265625 -1.75 0.859375q-0.765625 0.578125 -1.21875 1.546875q-0.453125 0.953125 -0.453125 2.34375l0 10.0l-5.359375 0l0 -19.65625l4.0625 0l0.796875 3.3125l0.25 0q0.59375 -1.0 1.453125 -1.828125q0.875 -0.84375 1.984375 -1.34375q1.125 -0.5 2.421875 -0.5zm13.488281 0q2.71875 0 4.6875 1.046875q1.96875 1.03125 3.03125 3.03125q1.078125 1.984375 1.078125 4.84375l0 2.609375l-12.671875 0q0.09375 2.265625 1.359375 3.5625q1.28125 1.28125 3.546875 1.28125q1.875 0 3.4375 -0.375q1.578125 -0.390625 3.21875 -1.171875l0 4.15625q-1.453125 0.71875 -3.046875 1.046875q-1.59375 0.34375 -3.859375 0.34375q-2.953125 0 -5.234375 -1.09375q-2.265625 -1.09375 -3.5625 -3.328125q-1.28125 -2.234375 -1.28125 -5.625q0 -3.4375 1.15625 -5.734375q1.171875 -2.296875 3.265625 -3.4375q2.09375 -1.15625 4.875 -1.15625zm0.03125 3.8125q-1.5625 0 -2.59375 1.0q-1.03125 1.0 -1.1875 3.140625l7.53125 0q-0.03125 -1.1875 -0.4375 -2.125q-0.40625 -0.9375 -1.234375 -1.46875q-0.8125 -0.546875 -2.078125 -0.546875zm28.699219 16.5625q-3.28125 0 -5.34375 -2.578125q-2.0625 -2.578125 -2.0625 -7.578125q0 -5.046875 2.078125 -7.625q2.09375 -2.59375 5.46875 -2.59375q1.40625 0 2.484375 0.390625q1.078125 0.375 1.859375 1.03125q0.78125 0.640625 1.328125 1.453125l0.171875 0q-0.109375 -0.5625 -0.265625 -1.65625q-0.140625 -1.109375 -0.140625 -2.265625l0 -6.296875l5.375 0l0 27.359375l-4.109375 0l-1.03125 -2.546875l-0.234375 0q-0.515625 0.8125 -1.28125 1.46875q-0.765625 0.65625 -1.828125 1.046875q-1.046875 0.390625 -2.46875 0.390625zm1.890625 -4.28125q2.1875 0 3.09375 -1.3125q0.90625 -1.3125 0.96875 -3.9375l0 -0.578125q0 -2.875 -0.890625 -4.390625q-0.875 -1.515625 -3.265625 -1.515625q-1.78125 0 -2.78125 1.53125q-1.0 1.515625 -1.0 4.40625q0 2.875 1.015625 4.34375q1.015625 1.453125 2.859375 1.453125zm20.03125 -15.734375l0 19.65625l-5.359375 0l0 -19.65625l5.359375 0zm-2.671875 -7.703125q1.203125 0 2.0625 0.5625q0.859375 0.546875 0.859375 2.0625q0 1.5 -0.859375 2.078125q-0.859375 0.5625 -2.0625 0.5625q-1.203125 0 -2.0625 -0.5625q-0.859375 -0.578125 -0.859375 -2.078125q0 -1.515625 0.859375 -2.0625q0.859375 -0.5625 2.0625 -0.5625zm22.017578 21.515625q0 2.015625 -0.953125 3.390625q-0.9375 1.375 -2.796875 2.09375q-1.859375 0.71875 -4.640625 0.71875q-2.0625 0 -3.53125 -0.265625q-1.46875 -0.265625 -2.953125 -0.890625l0 -4.421875q1.59375 0.71875 3.421875 1.1875q1.84375 0.46875 3.234375 0.46875q1.5625 0 2.234375 -0.46875q0.6875 -0.46875 0.6875 -1.21875q0 -0.5 -0.28125 -0.890625q-0.265625 -0.40625 -1.171875 -0.90625q-0.890625 -0.5 -2.796875 -1.296875q-1.84375 -0.78125 -3.03125 -1.5625q-1.1875 -0.796875 -1.765625 -1.875q-0.5625 -1.09375 -0.5625 -2.75q0 -2.734375 2.109375 -4.109375q2.125 -1.375 5.671875 -1.375q1.828125 0 3.484375 0.375q1.671875 0.359375 3.421875 1.171875l-1.609375 3.859375q-1.46875 -0.625 -2.765625 -1.03125q-1.28125 -0.40625 -2.625 -0.40625q-1.171875 0 -1.78125 0.3125q-0.59375 0.3125 -0.59375 0.96875q0 0.46875 0.3125 0.84375q0.3125 0.375 1.1875 0.828125q0.890625 0.4375 2.625 1.140625q1.671875 0.6875 2.890625 1.4375q1.234375 0.734375 1.90625 1.84375q0.671875 1.09375 0.671875 2.828125zm12.457031 1.921875q0.875 0 1.703125 -0.171875q0.84375 -0.171875 1.671875 -0.4375l0 3.984375q-0.859375 0.390625 -2.140625 0.640625q-1.265625 0.265625 -2.78125 0.265625q-1.765625 0 -3.15625 -0.578125q-1.390625 -0.578125 -2.203125 -1.984375q-0.796875 -1.421875 -0.796875 -3.953125l0 -9.46875l-2.5625 0l0 -2.265625l2.953125 -1.796875l1.546875 -4.15625l3.421875 0l0 4.1875l5.5 0l0 4.03125l-5.5 0l0 9.46875q0 1.125 0.640625 1.6875q0.640625 0.546875 1.703125 0.546875zm18.314453 -16.09375q0.40625 0 0.9375 0.046875q0.546875 0.03125 0.875 0.109375l-0.40625 5.015625q-0.265625 -0.078125 -0.75 -0.125q-0.484375 -0.046875 -0.828125 -0.046875q-1.046875 0 -2.015625 0.265625q-0.96875 0.265625 -1.75 0.859375q-0.765625 0.578125 -1.21875 1.546875q-0.453125 0.953125 -0.453125 2.34375l0 10.0l-5.359375 0l0 -19.65625l4.0625 0l0.796875 3.3125l0.25 0q0.59375 -1.0 1.453125 -1.828125q0.875 -0.84375 1.984375 -1.34375q1.125 -0.5 2.421875 -0.5zm10.738281 0.359375l0 19.65625l-5.359375 0l0 -19.65625l5.359375 0zm-2.671875 -7.703125q1.203125 0 2.0625 0.5625q0.859375 0.546875 0.859375 2.0625q0 1.5 -0.859375 2.078125q-0.859375 0.5625 -2.0625 0.5625q-1.203125 0 -2.0625 -0.5625q-0.859375 -0.578125 -0.859375 -2.078125q0 -1.515625 0.859375 -2.0625q0.859375 -0.5625 2.0625 -0.5625zm13.658203 0l0 6.375q0 1.109375 -0.0625 2.203125q-0.0625 1.078125 -0.140625 1.671875l0.203125 0q0.78125 -1.203125 2.109375 -2.046875q1.34375 -0.859375 3.46875 -0.859375q3.296875 0 5.359375 2.578125q2.0625 2.578125 2.0625 7.578125q0 3.359375 -0.953125 5.640625q-0.953125 2.265625 -2.65625 3.421875q-1.703125 1.15625 -3.953125 1.15625q-2.171875 0 -3.421875 -0.78125q-1.234375 -0.78125 -2.015625 -1.734375l-0.359375 0l-0.90625 2.15625l-4.09375 0l0 -27.359375l5.359375 0zm3.859375 11.625q-1.40625 0 -2.234375 0.578125q-0.828125 0.578125 -1.21875 1.75q-0.375 1.15625 -0.40625 2.921875l0 0.59375q0 2.859375 0.84375 4.390625q0.84375 1.515625 3.078125 1.515625q1.65625 0 2.625 -1.53125q0.984375 -1.53125 0.984375 -4.421875q0 -2.875 -0.984375 -4.328125q-0.984375 -1.46875 -2.6875 -1.46875zm31.59375 -3.921875l0 19.65625l-4.109375 0l-0.71875 -2.515625l-0.28125 0q-0.640625 1.0 -1.59375 1.640625q-0.9375 0.625 -2.078125 0.921875q-1.140625 0.3125 -2.375 0.3125q-2.109375 0 -3.671875 -0.75q-1.5625 -0.75 -2.4375 -2.328125q-0.875 -1.59375 -0.875 -4.125l0 -12.8125l5.359375 0l0 11.484375q0 2.109375 0.75 3.1875q0.765625 1.0625 2.421875 1.0625q1.640625 0 2.5625 -0.75q0.9375 -0.75 1.3125 -2.1875q0.375 -1.453125 0.375 -3.546875l0 -9.25l5.359375 0zm13.738281 -0.359375q2.71875 0 4.6875 1.046875q1.96875 1.03125 3.03125 3.03125q1.078125 1.984375 1.078125 4.84375l0 2.609375l-12.671875 0q0.09375 2.265625 1.359375 3.5625q1.28125 1.28125 3.546875 1.28125q1.875 0 3.4375 -0.375q1.578125 -0.390625 3.21875 -1.171875l0 4.15625q-1.453125 0.71875 -3.046875 1.046875q-1.59375 0.34375 -3.859375 0.34375q-2.953125 0 -5.234375 -1.09375q-2.265625 -1.09375 -3.5625 -3.328125q-1.28125 -2.234375 -1.28125 -5.625q0 -3.4375 1.15625 -5.734375q1.171875 -2.296875 3.265625 -3.4375q2.09375 -1.15625 4.875 -1.15625zm0.03125 3.8125q-1.5625 0 -2.59375 1.0q-1.03125 1.0 -1.1875 3.140625l7.53125 0q-0.03125 -1.1875 -0.4375 -2.125q-0.40625 -0.9375 -1.234375 -1.46875q-0.8125 -0.546875 -2.078125 -0.546875zm6.609375 -11.375l0 0.359375q-0.5 0.5 -1.328125 1.21875q-0.828125 0.71875 -1.78125 1.5q-0.9375 0.78125 -1.859375 1.5q-0.90625 0.703125 -1.59375 1.1875l-3.578125 0l0 -0.484375q0.578125 -0.65625 1.34375 -1.578125q0.765625 -0.921875 1.515625 -1.90625q0.765625 -0.984375 1.28125 -1.796875l6.0 0zm14.628906 7.5625q2.71875 0 4.6875 1.046875q1.96875 1.03125 3.03125 3.03125q1.078125 1.984375 1.078125 4.84375l0 2.609375l-12.671875 0q0.09375 2.265625 1.359375 3.5625q1.28125 1.28125 3.546875 1.28125q1.875 0 3.4375 -0.375q1.578125 -0.390625 3.21875 -1.171875l0 4.15625q-1.453125 0.71875 -3.046875 1.046875q-1.59375 0.34375 -3.859375 0.34375q-2.953125 0 -5.234375 -1.09375q-2.265625 -1.09375 -3.5625 -3.328125q-1.28125 -2.234375 -1.28125 -5.625q0 -3.4375 1.15625 -5.734375q1.171875 -2.296875 3.265625 -3.4375q2.09375 -1.15625 4.875 -1.15625zm0.03125 3.8125q-1.5625 0 -2.59375 1.0q-1.03125 1.0 -1.1875 3.140625l7.53125 0q-0.03125 -1.1875 -0.4375 -2.125q-0.40625 -0.9375 -1.234375 -1.46875q-0.8125 -0.546875 -2.078125 -0.546875z" fill-rule="nonzero"/><path fill="#fce5cd" d="m317.1496 100.44226l62.236237 0l0 403.55905l-62.236237 0z" fill-rule="evenodd"/><path stroke="#666666" stroke-width="2.0" stroke-linejoin="round" stroke-linecap="butt" d="m317.1496 100.44226l62.236237 0l0 403.55905l-62.236237 0z" fill-rule="evenodd"/><path fill="#000000" fill-opacity="0.0" d="m348.26773 100.44226l0 403.55905" fill-rule="evenodd"/><path stroke="#3a81ba" stroke-width="4.0" stroke-linejoin="round" stroke-linecap="butt" d="m348.26773 100.44226l0 379.55905" fill-rule="evenodd"/><path fill="#3a81ba" stroke="#3a81ba" stroke-width="4.0" stroke-linecap="butt" d="m341.6608 480.0013l6.6069336 18.152405l6.606903 -18.152405z" fill-rule="evenodd"/><path fill="#fce5cd" d="m406.03674 100.44226l62.236237 0l0 403.55905l-62.236237 0z" fill-rule="evenodd"/><path stroke="#666666" stroke-width="2.0" stroke-linejoin="round" stroke-linecap="butt" d="m406.03674 100.44226l62.236237 0l0 403.55905l-62.236237 0z" fill-rule="evenodd"/><path fill="#000000" fill-opacity="0.0" d="m437.15485 100.44226l0 403.55905" fill-rule="evenodd"/><path stroke="#3a81ba" stroke-width="4.0" stroke-linejoin="round" stroke-linecap="butt" d="m437.15485 100.44226l0 379.55905" fill-rule="evenodd"/><path fill="#3a81ba" stroke="#3a81ba" stroke-width="4.0" stroke-linecap="butt" d="m430.5479 480.0013l6.6069336 18.152405l6.6069336 -18.152405z" fill-rule="evenodd"/><path fill="#fce5cd" d="m494.9239 100.44226l62.236206 0l0 403.55905l-62.236206 0z" fill-rule="evenodd"/><path stroke="#666666" stroke-width="2.0" stroke-linejoin="round" stroke-linecap="butt" d="m494.9239 100.44226l62.236206 0l0 403.55905l-62.236206 0z" fill-rule="evenodd"/><path fill="#000000" fill-opacity="0.0" d="m526.042 100.44226l0 403.55905" fill-rule="evenodd"/><path stroke="#3a81ba" stroke-width="4.0" stroke-linejoin="round" stroke-linecap="butt" d="m526.042 100.44226l0 379.55905" fill-rule="evenodd"/><path fill="#3a81ba" stroke="#3a81ba" stroke-width="4.0" stroke-linecap="butt" d="m519.43506 480.0013l6.6069336 18.152405l6.6069336 -18.152405z" fill-rule="evenodd"/><path fill="#ffff00" d="m583.81104 531.0827l0 -456.94492l62.299194 0l0 456.94492z" fill-rule="evenodd"/><path stroke="#666666" stroke-width="2.0" stroke-linejoin="round" stroke-linecap="butt" d="m583.81104 531.0827l0 -456.94492l62.299194 0l0 456.94492z" fill-rule="evenodd"/><path fill="#000000" d="m600.7981 352.92664q0 -3.734375 1.984375 -6.109375q1.96875 -2.390625 5.5 -2.390625q2.8125 0 4.671875 1.234375q1.859375 1.21875 2.5625 3.71875l0.078125 0q0.421875 -2.15625 2.015625 -3.1875q1.59375 -1.03125 5.453125 -1.1875q2.5 -0.09375 3.9375 -0.453125q1.421875 -0.375 2.359375 -1.125l0 4.234375q-0.46875 0.359375 -0.921875 0.46875q-0.46875 0.109375 -1.265625 0.203125l-3.140625 0.15625q-2.21875 0.0625 -4.5 0.953125q-2.28125 0.875 -2.375 3.90625l0 9.390625l12.203125 0l0 3.796875l-28.5625 0l0 -13.609375zm13.171875 1.6875q0 -3.15625 -1.234375 -4.78125q-1.25 -1.625 -3.859375 -1.625q-2.3125 0 -3.59375 1.3125q-1.28125 1.296875 -1.28125 3.640625l0 9.578125l9.96875 0l0 -8.125zm-5.765625 -23.511719q0 -4.453125 3.203125 -6.90625q3.203125 -2.46875 8.21875 -2.46875l0.421875 0l0 15.484375l0.25 0q2.953125 0 4.75 -1.71875q1.796875 -1.71875 1.796875 -4.71875q0 -2.265625 -1.046875 -3.59375q-1.0625 -1.34375 -3.0 -1.765625l0 -3.359375q3.4375 0.6875 5.25 3.015625q1.796875 2.328125 1.796875 5.8125q0 3.265625 -1.46875 5.53125q-1.484375 2.25 -4.109375 3.328125q-2.625 1.0625 -5.375 1.0625q-4.578125 0 -7.625 -2.75q-3.0625 -2.75 -3.0625 -6.953125zm8.828125 6.109375l0 -11.875q-2.515625 0.15625 -4.171875 1.828125q-1.671875 1.671875 -1.671875 4.171875q0 2.34375 1.59375 4.015625q1.578125 1.65625 4.25 1.859375zm-16.953125 -12.015625l5.71875 5.265625l0 2.546875l-5.71875 -3.453125l0 -4.359375zm8.125 -13.859375q0 -4.171875 1.625 -6.203125q1.625 -2.03125 4.84375 -2.234375l0 3.40625l-0.046875 0q-1.640625 0.125 -2.53125 1.4375q-0.90625 1.296875 -0.90625 3.34375q0 2.046875 0.703125 3.234375q0.6875 1.171875 1.9375 1.171875q1.140625 0 1.859375 -1.03125q0.71875 -1.046875 1.171875 -3.15625l0.71875 -3.203125q0.671875 -3.015625 2.046875 -4.578125q1.375 -1.5625 3.703125 -1.5625q3.046875 0 4.78125 2.375q1.734375 2.359375 1.734375 6.4375q0 3.96875 -1.765625 6.296875q-1.78125 2.3125 -5.25 2.46875l0 -3.421875q1.9375 -0.046875 2.984375 -1.515625q1.03125 -1.46875 1.03125 -4.03125q0 -2.453125 -0.78125 -3.71875q-0.78125 -1.28125 -2.3125 -1.28125q-1.390625 0 -2.1875 1.265625q-0.8125 1.265625 -1.59375 5.171875q-0.765625 3.90625 -2.15625 5.5q-1.40625 1.578125 -3.734375 1.578125q-2.703125 0 -4.28125 -2.203125q-1.59375 -2.203125 -1.59375 -5.546875zm0 -21.71875q0 -4.453125 3.203125 -6.90625q3.203125 -2.46875 8.21875 -2.46875l0.421875 0l0 15.484375l0.25 0q2.953125 0 4.75 -1.71875q1.796875 -1.71875 1.796875 -4.71875q0 -2.265625 -1.046875 -3.59375q-1.0625 -1.34375 -3.0 -1.765625l0 -3.359375q3.4375 0.6875 5.25 3.015625q1.796875 2.328125 1.796875 5.8125q0 3.265625 -1.46875 5.53125q-1.484375 2.25 -4.109375 3.328125q-2.625 1.0625 -5.375 1.0625q-4.578125 0 -7.625 -2.75q-3.0625 -2.75 -3.0625 -6.953125zm8.828125 6.109375l0 -11.875q-2.515625 0.15625 -4.171875 1.828125q-1.671875 1.671875 -1.671875 4.171875q0 2.34375 1.59375 4.015625q1.578125 1.65625 4.25 1.859375zm-8.828125 -27.453125q0 -4.21875 1.515625 -5.984375q1.5 -1.765625 4.015625 -1.765625q10.765625 0 11.9375 0q1.171875 0 1.171875 -1.078125q0 -0.234375 -0.0625 -0.5q-0.0625 -0.28125 -0.140625 -0.53125l2.640625 0q0.28125 0.46875 0.421875 1.078125q0.140625 0.609375 0.140625 1.34375q0 1.40625 -0.78125 2.15625q-0.796875 0.734375 -2.421875 0.734375q1.609375 1.34375 2.40625 3.1875q0.796875 1.828125 0.796875 4.09375q0 3.203125 -1.515625 5.015625q-1.515625 1.8125 -4.28125 1.8125q-2.796875 0 -4.421875 -1.765625q-1.640625 -1.78125 -2.453125 -8.359375q-0.296875 -2.234375 -0.859375 -3.015625q-0.5625 -0.796875 -1.703125 -0.796875q-1.71875 0 -2.5625 1.109375q-0.859375 1.09375 -0.859375 3.5q0 2.515625 0.96875 3.78125q0.953125 1.25 2.96875 1.359375l0 3.390625q-3.4375 -0.15625 -5.171875 -2.421875q-1.75 -2.265625 -1.75 -6.34375zm15.59375 5.96875q1.4375 0 2.25 -1.046875q0.796875 -1.0625 0.796875 -2.953125q0 -2.875 -1.421875 -4.59375q-1.4375 -1.71875 -3.1875 -1.71875l-3.5625 0q0.609375 0.859375 0.828125 2.234375q0.203125 1.359375 0.515625 3.625q0.34375 2.265625 1.25 3.359375q0.890625 1.09375 2.53125 1.09375zm-15.125 -22.390625l14.109375 0q1.75 0 2.90625 -1.125q1.15625 -1.125 1.15625 -3.09375q0 -2.9375 -1.78125 -4.53125q-1.796875 -1.59375 -4.578125 -1.59375l-11.8125 0l0 -3.390625l20.6875 0l0 3.203125l-3.28125 0l0 0.078125q1.96875 1.125 2.875 2.828125q0.890625 1.703125 0.890625 3.90625q0 3.609375 -1.859375 5.359375q-1.875 1.75 -5.515625 1.75l-13.796875 0l0 -3.390625z" fill-rule="nonzero"/><path fill="#fce5cd" d="m672.76117 100.44226l62.236206 0l0 403.55905l-62.236206 0z" fill-rule="evenodd"/><path stroke="#666666" stroke-width="2.0" stroke-linejoin="round" stroke-linecap="butt" d="m672.76117 100.44226l62.236206 0l0 403.55905l-62.236206 0z" fill-rule="evenodd"/><path fill="#000000" fill-opacity="0.0" d="m703.8793 100.44226l0 403.55905" fill-rule="evenodd"/><path stroke="#3a81ba" stroke-width="4.0" stroke-linejoin="round" stroke-linecap="butt" d="m703.8793 100.44226l0 379.55905" fill-rule="evenodd"/><path fill="#3a81ba" stroke="#3a81ba" stroke-width="4.0" stroke-linecap="butt" d="m697.27234 480.0013l6.6069336 18.152405l6.6069336 -18.152405z" fill-rule="evenodd"/><path fill="#fce5cd" d="m761.6483 100.44226l62.236206 0l0 403.55905l-62.236206 0z" fill-rule="evenodd"/><path stroke="#666666" stroke-width="2.0" stroke-linejoin="round" stroke-linecap="butt" d="m761.6483 100.44226l62.236206 0l0 403.55905l-62.236206 0z" fill-rule="evenodd"/><path fill="#000000" fill-opacity="0.0" d="m792.7664 100.44226l0 403.55905" fill-rule="evenodd"/><path stroke="#3a81ba" stroke-width="4.0" stroke-linejoin="round" stroke-linecap="butt" d="m792.7664 100.44226l0 379.55905" fill-rule="evenodd"/><path fill="#3a81ba" stroke="#3a81ba" stroke-width="4.0" stroke-linecap="butt" d="m786.1595 480.0013l6.6069336 18.152405l6.6069336 -18.152405z" fill-rule="evenodd"/><path fill="#fce5cd" d="m850.53546 100.44226l62.236206 0l0 403.55905l-62.236206 0z" fill-rule="evenodd"/><path stroke="#666666" stroke-width="2.0" stroke-linejoin="round" stroke-linecap="butt" d="m850.53546 100.44226l62.236206 0l0 403.55905l-62.236206 0z" fill-rule="evenodd"/><path fill="#000000" fill-opacity="0.0" d="m881.65356 100.44226l0 403.55905" fill-rule="evenodd"/><path stroke="#3a81ba" stroke-width="4.0" stroke-linejoin="round" stroke-linecap="butt" d="m881.65356 100.44226l0 379.55905" fill-rule="evenodd"/><path fill="#3a81ba" stroke="#3a81ba" stroke-width="4.0" stroke-linecap="butt" d="m875.04663 480.0013l6.6069336 18.152405l6.6069336 -18.152405z" fill-rule="evenodd"/><path fill="#000000" fill-opacity="0.0" d="m347.61154 141.43701l89.165375 18.897629" fill-rule="evenodd"/><path stroke="#00ff00" stroke-width="4.0" stroke-linejoin="round" stroke-linecap="butt" d="m347.61154 141.43701l89.165375 18.897629" fill-rule="evenodd"/><path fill="#000000" fill-opacity="0.0" d="m347.61154 130.14043l179.08664 19.748032" fill-rule="evenodd"/><path stroke="#00ff00" stroke-width="4.0" stroke-linejoin="round" stroke-linecap="butt" d="m347.61154 130.14043l179.08664 19.748032" fill-rule="evenodd"/><path fill="#000000" fill-opacity="0.0" d="m347.7743 179.6811l357.51178 53.826767" fill-rule="evenodd"/><path stroke="#00ff00" stroke-width="4.0" stroke-linejoin="round" stroke-linecap="butt" d="m347.7743 179.6811l357.51178 53.826767" fill-rule="evenodd"/><path fill="#000000" fill-opacity="0.0" d="m348.32416 451.1063l533.3858 -75.49606" fill-rule="evenodd"/><path stroke="#00ff00" stroke-width="4.0" stroke-linejoin="round" stroke-linecap="butt" d="m348.32416 451.1063l533.3858 -75.49606" fill-rule="evenodd"/><path fill="#fce5cd" d="m64.944885 74.04068l186.48819 0l0 186.48819l-186.48819 0z" fill-rule="evenodd"/><path stroke="#666666" stroke-width="2.0" stroke-linejoin="round" stroke-linecap="butt" d="m64.944885 74.04068l186.48819 0l0 186.48819l-186.48819 0z" fill-rule="evenodd"/><path fill="#000000" d="m81.319885 87.64818q1.828125 0 2.90625 1.0q1.09375 0.984375 1.09375 2.9375q0 1.953125 -1.09375 2.9375q-1.078125 0.984375 -2.78125 0.984375l-4.28125 0l0 5.453125l-1.765625 0l0 -13.3125l5.921875 0zm-0.484375 6.375q1.265625 0 1.984375 -0.59375q0.734375 -0.609375 0.734375 -1.84375q0 -1.234375 -0.71875 -1.84375q-0.71875 -0.609375 -2.109375 -0.609375l-3.5625 0l0 4.890625l3.671875 0zm10.823975 -2.9375q0.046875 0 0.09375 0q0.046875 0 0.125 0.015625l0 1.671875q-1.796875 0 -2.65625 0.953125q-0.84375 0.9375 -0.84375 2.921875l0 4.3125l-1.578125 0l0 -9.640625l1.484375 0l0 2.03125l0.046875 0q0.546875 -1.15625 1.359375 -1.703125q0.828125 -0.5625 1.96875 -0.5625zm5.2348175 0.015625q2.1875 0 3.421875 1.40625q1.25 1.40625 1.25 3.640625q0 2.25 -1.28125 3.65625q-1.265625 1.390625 -3.390625 1.390625q-2.09375 0 -3.390625 -1.375q-1.296875 -1.375 -1.296875 -3.671875q0 -2.296875 1.265625 -3.671875q1.265625 -1.375 3.421875 -1.375zm-3.015625 5.046875q0 1.65625 0.84375 2.65625q0.859375 0.984375 2.171875 0.984375q1.296875 0 2.140625 -0.984375q0.859375 -1.0 0.859375 -2.65625q0 -1.640625 -0.84375 -2.640625q-0.84375 -1.015625 -2.171875 -1.015625q-1.28125 0 -2.140625 0.984375q-0.859375 0.984375 -0.859375 2.671875zm13.587769 -5.046875q1.765625 0 2.859375 0.84375q1.109375 0.828125 1.296875 2.46875l-1.625 0q-0.203125 -0.9375 -0.828125 -1.421875q-0.625 -0.5 -1.5625 -0.5q-1.484375 0 -2.25 0.984375q-0.765625 0.984375 -0.765625 2.78125q0 1.609375 0.75 2.578125q0.765625 0.953125 2.078125 0.953125q1.15625 0 1.8125 -0.625q0.671875 -0.625 0.828125 -1.734375l1.625 0q-0.265625 1.8125 -1.359375 2.796875q-1.09375 0.96875 -2.890625 0.96875q-2.109375 0 -3.3125 -1.328125q-1.203125 -1.328125 -1.203125 -3.609375q0 -2.359375 1.21875 -3.75q1.21875 -1.40625 3.328125 -1.40625zm10.004822 0q2.078125 0 3.21875 1.5q1.15625 1.484375 1.15625 3.828125l0 0.1875l-7.234375 0l0 0.109375q0 1.390625 0.796875 2.234375q0.8125 0.828125 2.21875 0.828125q1.046875 0 1.671875 -0.484375q0.625 -0.5 0.828125 -1.40625l1.5625 0q-0.328125 1.609375 -1.40625 2.453125q-1.078125 0.84375 -2.71875 0.84375q-1.515625 0 -2.578125 -0.6875q-1.046875 -0.6875 -1.546875 -1.90625q-0.5 -1.234375 -0.5 -2.515625q0 -2.140625 1.28125 -3.5625q1.296875 -1.421875 3.25 -1.421875zm-2.859375 4.109375l5.546875 0q-0.078125 -1.171875 -0.859375 -1.9375q-0.765625 -0.78125 -1.9375 -0.78125q-1.09375 0 -1.875 0.734375q-0.765625 0.734375 -0.875 1.984375zm12.082947 -4.109375q1.9375 0 2.890625 0.75q0.953125 0.75 1.03125 2.265625l-1.578125 0l0 -0.03125q-0.0625 -0.765625 -0.671875 -1.171875q-0.609375 -0.421875 -1.5625 -0.421875q-0.953125 0 -1.515625 0.328125q-0.546875 0.3125 -0.546875 0.90625q0 0.515625 0.484375 0.859375q0.5 0.328125 1.484375 0.546875l1.484375 0.328125q1.40625 0.3125 2.125 0.953125q0.734375 0.640625 0.734375 1.734375q0 1.421875 -1.109375 2.234375q-1.09375 0.8125 -2.984375 0.8125q-1.859375 0 -2.953125 -0.828125q-1.078125 -0.84375 -1.140625 -2.453125l1.59375 0q0.03125 0.90625 0.703125 1.390625q0.6875 0.484375 1.875 0.484375q1.15625 0 1.75 -0.359375q0.59375 -0.375 0.59375 -1.078125q0 -0.65625 -0.59375 -1.03125q-0.59375 -0.375 -2.40625 -0.734375q-1.828125 -0.359375 -2.578125 -1.015625q-0.734375 -0.65625 -0.734375 -1.734375q0 -1.265625 1.03125 -2.0q1.03125 -0.734375 2.59375 -0.734375zm9.328125 0q1.9375 0 2.890625 0.75q0.953125 0.75 1.03125 2.265625l-1.578125 0l0 -0.03125q-0.0625 -0.765625 -0.671875 -1.171875q-0.609375 -0.421875 -1.5625 -0.421875q-0.953125 0 -1.515625 0.328125q-0.546875 0.3125 -0.546875 0.90625q0 0.515625 0.484375 0.859375q0.5 0.328125 1.484375 0.546875l1.484375 0.328125q1.40625 0.3125 2.125 0.953125q0.734375 0.640625 0.734375 1.734375q0 1.421875 -1.109375 2.234375q-1.09375 0.8125 -2.984375 0.8125q-1.859375 0 -2.953125 -0.828125q-1.078125 -0.84375 -1.140625 -2.453125l1.59375 0q0.03125 0.90625 0.703125 1.390625q0.6875 0.484375 1.875 0.484375q1.15625 0 1.75 -0.359375q0.59375 -0.375 0.59375 -1.078125q0 -0.65625 -0.59375 -1.03125q-0.59375 -0.375 -2.40625 -0.734375q-1.828125 -0.359375 -2.578125 -1.015625q-0.734375 -0.65625 -0.734375 -1.734375q0 -1.265625 1.03125 -2.0q1.03125 -0.734375 2.59375 -0.734375zm7.703125 0.21875l0 6.578125q0 0.8125 0.515625 1.359375q0.53125 0.53125 1.453125 0.53125q1.359375 0 2.09375 -0.828125q0.75 -0.84375 0.75 -2.140625l0 -5.5l1.59375 0l0 9.640625l-1.5 0l0 -1.53125l-0.03125 0q-0.53125 0.921875 -1.328125 1.34375q-0.796875 0.421875 -1.8125 0.421875q-1.6875 0 -2.515625 -0.875q-0.8125 -0.875 -0.8125 -2.578125l0 -6.421875l1.59375 0zm12.000717 -0.21875q1.9375 0 2.890625 0.75q0.953125 0.75 1.03125 2.265625l-1.578125 0l0 -0.03125q-0.0625 -0.765625 -0.671875 -1.171875q-0.609375 -0.421875 -1.5625 -0.421875q-0.953125 0 -1.515625 0.328125q-0.546875 0.3125 -0.546875 0.90625q0 0.515625 0.484375 0.859375q0.5 0.328125 1.484375 0.546875l1.484375 0.328125q1.40625 0.3125 2.125 0.953125q0.734375 0.640625 0.734375 1.734375q0 1.421875 -1.109375 2.234375q-1.09375 0.8125 -2.984375 0.8125q-1.859375 0 -2.953125 -0.828125q-1.078125 -0.84375 -1.140625 -2.453125l1.59375 0q0.03125 0.90625 0.703125 1.390625q0.6875 0.484375 1.875 0.484375q1.15625 0 1.75 -0.359375q0.59375 -0.375 0.59375 -1.078125q0 -0.65625 -0.59375 -1.03125q-0.59375 -0.375 -2.40625 -0.734375q-1.828125 -0.359375 -2.578125 -1.015625q-0.734375 -0.65625 -0.734375 -1.734375q0 -1.265625 1.03125 -2.0q1.03125 -0.734375 2.59375 -0.734375zm16.745804 -3.375l0 13.234375l-1.578125 0l0 -9.46875l-3.4375 0l0 -1.28125l0.046875 0q1.6875 0 2.59375 -0.59375q0.921875 -0.609375 1.15625 -1.890625l1.21875 0z" fill-rule="nonzero"/><path fill="#a4c2f4" d="m140.47244 141.43701l66.67717 0l0 49.38582l-66.67717 0z" fill-rule="evenodd"/><path stroke="#666666" stroke-width="2.0" stroke-linejoin="round" stroke-linecap="butt" d="m140.47244 141.43701l66.67717 0l0 49.38582l-66.67717 0z" fill-rule="evenodd"/><path fill="#000000" d="m156.5037 159.73741l5.203125 13.3125l-1.953125 0l-1.453125 -4.015625l-5.640625 0l-1.5 4.015625l-1.8125 0l5.203125 -13.3125l1.953125 0zm-1.03125 1.59375l-2.25 6.21875l4.515625 0l-2.21875 -6.21875l-0.046875 0zm11.103928 -1.921875q-1.25 1.96875 -1.859375 4.0625q-0.59375 2.078125 -0.59375 4.546875q0 2.484375 0.59375 4.59375q0.59375 2.109375 1.859375 4.140625l-1.203125 0q-1.609375 -2.5 -2.28125 -4.5625q-0.65625 -2.078125 -0.65625 -4.171875q0 -2.1875 0.75 -4.4375q0.75 -2.25 2.1875 -4.171875l1.203125 0zm6.4530334 0.40625l0 13.234375l-1.578125 0l0 -9.46875l-3.4375 0l0 -1.28125l0.046875 0q1.6875 0 2.59375 -0.59375q0.921875 -0.609375 1.15625 -1.890625l1.21875 0zm8.922592 0q1.109375 0 1.921875 0.375q0.8125 0.359375 1.375 1.09375q1.109375 1.421875 1.109375 5.265625q0 1.9375 -0.265625 3.234375q-0.265625 1.296875 -0.84375 2.03125q-0.546875 0.71875 -1.375 1.09375q-0.8125 0.375 -1.921875 0.375q-2.203125 0 -3.296875 -1.484375q-1.109375 -1.46875 -1.109375 -5.25q0 -3.796875 1.109375 -5.25q1.109375 -1.484375 3.296875 -1.484375zm-2.734375 6.71875q0 1.59375 0.171875 2.640625q0.1875 1.03125 0.53125 1.59375q0.703125 1.109375 2.03125 1.109375q1.46875 0 2.109375 -1.265625q0.3125 -0.65625 0.453125 -1.640625q0.15625 -1.0 0.15625 -2.375q0 -0.46875 -0.015625 -1.046875q0 -0.578125 -0.078125 -1.15625q-0.0625 -0.59375 -0.234375 -1.15625q-0.15625 -0.578125 -0.453125 -1.015625q-0.3125 -0.4375 -0.78125 -0.71875q-0.46875 -0.28125 -1.171875 -0.28125q-0.640625 0 -1.140625 0.265625q-0.5 0.265625 -0.859375 0.8125q-0.71875 1.078125 -0.71875 4.234375zm8.953842 -7.125q1.484375 2.296875 2.203125 4.40625q0.71875 2.09375 0.71875 4.328125q0 2.265625 -0.765625 4.484375q-0.75 2.203125 -2.15625 4.125l-1.21875 0q1.25 -1.984375 1.859375 -4.0625q0.609375 -2.09375 0.609375 -4.546875q0 -2.484375 -0.609375 -4.59375q-0.609375 -2.125 -1.859375 -4.140625l1.21875 0z" fill-rule="nonzero"/><path fill="#fce5cd" d="m64.944885 344.6929l186.48819 0l0 186.48819l-186.48819 0z" fill-rule="evenodd"/><path stroke="#666666" stroke-width="2.0" stroke-linejoin="round" stroke-linecap="butt" d="m64.944885 344.6929l186.48819 0l0 186.48819l-186.48819 0z" fill-rule="evenodd"/><path fill="#000000" d="m81.319885 504.7886q1.828125 0 2.90625 1.0q1.09375 0.984375 1.09375 2.9375q0 1.953125 -1.09375 2.9375q-1.078125 0.9843445 -2.78125 0.9843445l-4.28125 0l0 5.453125l-1.765625 0l0 -13.3124695l5.921875 0zm-0.484375 6.375q1.265625 0 1.984375 -0.59375q0.734375 -0.609375 0.734375 -1.84375q0 -1.234375 -0.71875 -1.84375q-0.71875 -0.609375 -2.109375 -0.609375l-3.5625 0l0 4.890625l3.671875 0zm10.823975 -2.9375q0.046875 0 0.09375 0q0.046875 0 0.125 0.015625l0 1.671875q-1.796875 0 -2.65625 0.953125q-0.84375 0.9375 -0.84375 2.9218445l0 4.3125l-1.578125 0l0 -9.6405945l1.484375 0l0 2.03125l0.046875 0q0.546875 -1.15625 1.359375 -1.703125q0.828125 -0.5625 1.96875 -0.5625zm5.2348175 0.015625q2.1875 0 3.421875 1.40625q1.25 1.40625 1.25 3.6405945q0 2.25 -1.28125 3.65625q-1.265625 1.390625 -3.390625 1.390625q-2.09375 0 -3.390625 -1.375q-1.296875 -1.375 -1.296875 -3.671875q0 -2.2968445 1.265625 -3.6718445q1.265625 -1.375 3.421875 -1.375zm-3.015625 5.0468445q0 1.65625 0.84375 2.65625q0.859375 0.984375 2.171875 0.984375q1.296875 0 2.140625 -0.984375q0.859375 -1.0 0.859375 -2.65625q0 -1.6405945 -0.84375 -2.6405945q-0.84375 -1.015625 -2.171875 -1.015625q-1.28125 0 -2.140625 0.984375q-0.859375 0.984375 -0.859375 2.6718445zm13.587769 -5.0468445q1.765625 0 2.859375 0.84375q1.109375 0.828125 1.296875 2.46875l-1.625 0q-0.203125 -0.9375 -0.828125 -1.421875q-0.625 -0.5 -1.5625 -0.5q-1.484375 0 -2.25 0.984375q-0.765625 0.984375 -0.765625 2.7812195q0 1.609375 0.75 2.578125q0.765625 0.953125 2.078125 0.953125q1.15625 0 1.8125 -0.625q0.671875 -0.625 0.828125 -1.734375l1.625 0q-0.265625 1.8125 -1.359375 2.796875q-1.09375 0.96875 -2.890625 0.96875q-2.109375 0 -3.3125 -1.328125q-1.203125 -1.328125 -1.203125 -3.609375q0 -2.3593445 1.21875 -3.7499695q1.21875 -1.40625 3.328125 -1.40625zm10.004822 0q2.078125 0 3.21875 1.5q1.15625 1.484375 1.15625 3.8280945l0 0.1875l-7.234375 0l0 0.109375q0 1.390625 0.796875 2.234375q0.8125 0.828125 2.21875 0.828125q1.046875 0 1.671875 -0.484375q0.625 -0.5 0.828125 -1.40625l1.5625 0q-0.328125 1.609375 -1.40625 2.453125q-1.078125 0.84375 -2.71875 0.84375q-1.515625 0 -2.578125 -0.6875q-1.046875 -0.6875 -1.546875 -1.90625q-0.5 -1.234375 -0.5 -2.515625q0 -2.1405945 1.28125 -3.5624695q1.296875 -1.421875 3.25 -1.421875zm-2.859375 4.1093445l5.546875 0q-0.078125 -1.1718445 -0.859375 -1.9374695q-0.765625 -0.78125 -1.9375 -0.78125q-1.09375 0 -1.875 0.734375q-0.765625 0.734375 -0.875 1.9843445zm12.082947 -4.1093445q1.9375 0 2.890625 0.75q0.953125 0.75 1.03125 2.265625l-1.578125 0l0 -0.03125q-0.0625 -0.765625 -0.671875 -1.171875q-0.609375 -0.421875 -1.5625 -0.421875q-0.953125 0 -1.515625 0.328125q-0.546875 0.3125 -0.546875 0.90625q0 0.515625 0.484375 0.859375q0.5 0.32809448 1.484375 0.5468445l1.484375 0.328125q1.40625 0.3125 2.125 0.953125q0.734375 0.640625 0.734375 1.734375q0 1.421875 -1.109375 2.234375q-1.09375 0.8125 -2.984375 0.8125q-1.859375 0 -2.953125 -0.828125q-1.078125 -0.84375 -1.140625 -2.453125l1.59375 0q0.03125 0.90625 0.703125 1.390625q0.6875 0.484375 1.875 0.484375q1.15625 0 1.75 -0.359375q0.59375 -0.375 0.59375 -1.078125q0 -0.65625 -0.59375 -1.03125q-0.59375 -0.375 -2.40625 -0.734375q-1.828125 -0.359375 -2.578125 -1.015625q-0.734375 -0.65625 -0.734375 -1.7343445q0 -1.265625 1.03125 -2.0q1.03125 -0.734375 2.59375 -0.734375zm9.328125 0q1.9375 0 2.890625 0.75q0.953125 0.75 1.03125 2.265625l-1.578125 0l0 -0.03125q-0.0625 -0.765625 -0.671875 -1.171875q-0.609375 -0.421875 -1.5625 -0.421875q-0.953125 0 -1.515625 0.328125q-0.546875 0.3125 -0.546875 0.90625q0 0.515625 0.484375 0.859375q0.5 0.32809448 1.484375 0.5468445l1.484375 0.328125q1.40625 0.3125 2.125 0.953125q0.734375 0.640625 0.734375 1.734375q0 1.421875 -1.109375 2.234375q-1.09375 0.8125 -2.984375 0.8125q-1.859375 0 -2.953125 -0.828125q-1.078125 -0.84375 -1.140625 -2.453125l1.59375 0q0.03125 0.90625 0.703125 1.390625q0.6875 0.484375 1.875 0.484375q1.15625 0 1.75 -0.359375q0.59375 -0.375 0.59375 -1.078125q0 -0.65625 -0.59375 -1.03125q-0.59375 -0.375 -2.40625 -0.734375q-1.828125 -0.359375 -2.578125 -1.015625q-0.734375 -0.65625 -0.734375 -1.7343445q0 -1.265625 1.03125 -2.0q1.03125 -0.734375 2.59375 -0.734375zm7.703125 0.21875l0 6.5780945q0 0.8125 0.515625 1.359375q0.53125 0.53125 1.453125 0.53125q1.359375 0 2.09375 -0.828125q0.75 -0.84375 0.75 -2.140625l0 -5.4999695l1.59375 0l0 9.6405945l-1.5 0l0 -1.53125l-0.03125 0q-0.53125 0.921875 -1.328125 1.34375q-0.796875 0.421875 -1.8125 0.421875q-1.6875 0 -2.515625 -0.875q-0.8125 -0.875 -0.8125 -2.578125l0 -6.4218445l1.59375 0zm12.000717 -0.21875q1.9375 0 2.890625 0.75q0.953125 0.75 1.03125 2.265625l-1.578125 0l0 -0.03125q-0.0625 -0.765625 -0.671875 -1.171875q-0.609375 -0.421875 -1.5625 -0.421875q-0.953125 0 -1.515625 0.328125q-0.546875 0.3125 -0.546875 0.90625q0 0.515625 0.484375 0.859375q0.5 0.32809448 1.484375 0.5468445l1.484375 0.328125q1.40625 0.3125 2.125 0.953125q0.734375 0.640625 0.734375 1.734375q0 1.421875 -1.109375 2.234375q-1.09375 0.8125 -2.984375 0.8125q-1.859375 0 -2.953125 -0.828125q-1.078125 -0.84375 -1.140625 -2.453125l1.59375 0q0.03125 0.90625 0.703125 1.390625q0.6875 0.484375 1.875 0.484375q1.15625 0 1.75 -0.359375q0.59375 -0.375 0.59375 -1.078125q0 -0.65625 -0.59375 -1.03125q-0.59375 -0.375 -2.40625 -0.734375q-1.828125 -0.359375 -2.578125 -1.015625q-0.734375 -0.65625 -0.734375 -1.7343445q0 -1.265625 1.03125 -2.0q1.03125 -0.734375 2.59375 -0.734375zm15.183304 -3.375q1.828125 0 2.984375 1.046875q1.15625 1.03125 1.15625 2.765625q0 1.375 -0.765625 2.484375q-0.765625 1.0937195 -3.25 2.5155945q-1.5 0.875 -2.140625 1.578125q-0.625 0.6875 -0.765625 1.4375l6.78125 0l0 1.40625l-8.625 0q0.125 -1.65625 0.84375 -2.890625q0.71875 -1.234375 2.671875 -2.40625q2.3125 -1.4062195 2.9375 -2.2030945q0.625 -0.8125 0.625 -1.921875q0 -1.046875 -0.734375 -1.71875q-0.71875 -0.6875 -1.8125 -0.6875q-1.1875 0 -1.890625 0.890625q-0.6875 0.890625 -0.6875 2.265625l0 0.125l-1.59375 0l0 -0.328125q0 -1.96875 1.15625 -3.15625q1.171875 -1.203125 3.109375 -1.203125z" fill-rule="nonzero"/><path fill="#a4c2f4" d="m140.47244 402.7349l66.67717 0l0 49.385834l-66.67717 0z" fill-rule="evenodd"/><path stroke="#666666" stroke-width="2.0" stroke-linejoin="round" stroke-linecap="butt" d="m140.47244 402.7349l66.67717 0l0 49.385834l-66.67717 0z" fill-rule="evenodd"/><path fill="#000000" d="m156.5037 421.0353l5.203125 13.3125l-1.953125 0l-1.453125 -4.015625l-5.640625 0l-1.5 4.015625l-1.8125 0l5.203125 -13.3125l1.953125 0zm-1.03125 1.59375l-2.25 6.21875l4.515625 0l-2.21875 -6.21875l-0.046875 0zm11.103928 -1.921875q-1.25 1.96875 -1.859375 4.0625q-0.59375 2.078125 -0.59375 4.546875q0 2.484375 0.59375 4.59375q0.59375 2.109375 1.859375 4.140625l-1.203125 0q-1.609375 -2.5 -2.28125 -4.5625q-0.65625 -2.078125 -0.65625 -4.171875q0 -2.1875 0.75 -4.4375q0.75 -2.25 2.1875 -4.171875l1.203125 0zm6.4530334 0.40625l0 13.234375l-1.578125 0l0 -9.46875l-3.4375 0l0 -1.28125l0.046875 0q1.6875 0 2.59375 -0.59375q0.921875 -0.609375 1.15625 -1.890625l1.21875 0zm8.922592 0q1.109375 0 1.921875 0.375q0.8125 0.359375 1.375 1.09375q1.109375 1.421875 1.109375 5.265625q0 1.9375 -0.265625 3.234375q-0.265625 1.296875 -0.84375 2.03125q-0.546875 0.71875 -1.375 1.09375q-0.8125 0.375 -1.921875 0.375q-2.203125 0 -3.296875 -1.484375q-1.109375 -1.46875 -1.109375 -5.25q0 -3.796875 1.109375 -5.25q1.109375 -1.484375 3.296875 -1.484375zm-2.734375 6.71875q0 1.59375 0.171875 2.640625q0.1875 1.03125 0.53125 1.59375q0.703125 1.109375 2.03125 1.109375q1.46875 0 2.109375 -1.265625q0.3125 -0.65625 0.453125 -1.640625q0.15625 -1.0 0.15625 -2.375q0 -0.46875 -0.015625 -1.046875q0 -0.578125 -0.078125 -1.15625q-0.0625 -0.59375 -0.234375 -1.15625q-0.15625 -0.578125 -0.453125 -1.015625q-0.3125 -0.4375 -0.78125 -0.71875q-0.46875 -0.28125 -1.171875 -0.28125q-0.640625 0 -1.140625 0.265625q-0.5 0.265625 -0.859375 0.8125q-0.71875 1.078125 -0.71875 4.234375zm8.953842 -7.125q1.484375 2.296875 2.203125 4.40625q0.71875 2.09375 0.71875 4.328125q0 2.265625 -0.765625 4.484375q-0.75 2.203125 -2.15625 4.125l-1.21875 0q1.25 -1.984375 1.859375 -4.0625q0.609375 -2.09375 0.609375 -4.546875q0 -2.484375 -0.609375 -4.59375q-0.609375 -2.125 -1.859375 -4.140625l1.21875 0z" fill-rule="nonzero"/><path fill="#ff9900" d="m47.228348 283.1614l221.92125 0l0 38.897644l-221.92125 0z" fill-rule="evenodd"/><path fill="#000000" d="m67.71923 296.76892l2.96875 9.359375l0.03125 0l3.0 -9.359375l3.03125 0l-4.421875 13.3125l-3.296875 0l-4.328125 -13.3125l3.015625 0zm13.56636 3.40625q2.140625 0 3.1875 0.703125q1.046875 0.703125 1.046875 1.984375l0 5.171875q0 0.578125 0.0625 1.171875q0.078125 0.578125 0.265625 0.875l-2.6875 0q-0.078125 -0.21875 -0.125 -0.453125q-0.046875 -0.234375 -0.0625 -0.46875q-0.5625 0.578125 -1.390625 0.890625q-0.8125 0.296875 -1.859375 0.296875q-1.484375 0 -2.390625 -0.75q-0.890625 -0.75 -0.890625 -2.140625q0 -1.359375 0.84375 -2.0625q0.84375 -0.71875 3.046875 -0.96875q1.546875 -0.140625 2.03125 -0.375q0.5 -0.234375 0.5 -0.8125q0 -0.640625 -0.375 -0.96875q-0.375 -0.328125 -1.328125 -0.328125q-0.828125 0 -1.265625 0.359375q-0.4375 0.34375 -0.5 1.109375l-2.65625 0q0.109375 -1.59375 1.296875 -2.40625q1.203125 -0.828125 3.25 -0.828125zm-2.1875 7.171875q0 0.5625 0.390625 0.890625q0.390625 0.328125 1.234375 0.328125q1.0625 0 1.59375 -0.546875q0.546875 -0.5625 0.546875 -1.625l0 -1.03125q-0.234375 0.1875 -0.625 0.28125q-0.390625 0.09375 -1.40625 0.25q-0.890625 0.109375 -1.3125 0.46875q-0.421875 0.34375 -0.421875 0.984375zm14.087769 -7.171875q0.1875 0 0.328125 0.03125q0.140625 0.015625 0.265625 0.0625l0 2.46875q-0.21875 -0.046875 -0.4375 -0.0625q-0.21875 -0.03125 -0.5 -0.03125q-1.34375 0 -1.984375 0.828125q-0.640625 0.8125 -0.640625 2.1875l0 4.421875l-2.640625 0l0 -9.640625l2.515625 0l0 1.78125l0.03125 0q0.421875 -0.9375 1.25 -1.484375q0.828125 -0.5625 1.8125 -0.5625zm4.369644 -3.40625l0 2.171875l-2.65625 0l0 -2.171875l2.65625 0zm0 3.671875l0 9.640625l-2.65625 0l0 -9.640625l2.65625 0zm6.5129395 -0.265625q2.140625 0 3.1875 0.703125q1.046875 0.703125 1.046875 1.984375l0 5.171875q0 0.578125 0.0625 1.171875q0.078125 0.578125 0.265625 0.875l-2.6875 0q-0.078125 -0.21875 -0.125 -0.453125q-0.046875 -0.234375 -0.0625 -0.46875q-0.5625 0.578125 -1.390625 0.890625q-0.8125 0.296875 -1.859375 0.296875q-1.484375 0 -2.390625 -0.75q-0.890625 -0.75 -0.890625 -2.140625q0 -1.359375 0.84375 -2.0625q0.84375 -0.71875 3.046875 -0.96875q1.546875 -0.140625 2.03125 -0.375q0.5 -0.234375 0.5 -0.8125q0 -0.640625 -0.375 -0.96875q-0.375 -0.328125 -1.328125 -0.328125q-0.828125 0 -1.265625 0.359375q-0.4375 0.34375 -0.5 1.109375l-2.65625 0q0.109375 -1.59375 1.296875 -2.40625q1.203125 -0.828125 3.25 -0.828125zm-2.1875 7.171875q0 0.5625 0.390625 0.890625q0.390625 0.328125 1.234375 0.328125q1.0625 0 1.59375 -0.546875q0.546875 -0.5625 0.546875 -1.625l0 -1.03125q-0.234375 0.1875 -0.625 0.28125q-0.390625 0.09375 -1.40625 0.25q-0.890625 0.109375 -1.3125 0.46875q-0.421875 0.34375 -0.421875 0.984375zm11.119019 -10.578125l0 4.84375l0.046875 0q0.421875 -0.65625 1.21875 -1.046875q0.8125 -0.390625 1.8125 -0.390625q1.6875 0 2.84375 1.375q1.15625 1.375 1.15625 3.703125q0 2.3125 -1.15625 3.703125q-1.15625 1.390625 -2.859375 1.390625q-1.15625 0 -1.96875 -0.390625q-0.796875 -0.390625 -1.1875 -1.109375l-0.03125 0l0 1.234375l-2.515625 0l0 -13.3125l2.640625 0zm-0.09375 8.5q0 1.390625 0.609375 2.234375q0.609375 0.84375 1.65625 0.84375q1.03125 0 1.640625 -0.84375q0.609375 -0.84375 0.609375 -2.234375q0 -1.390625 -0.59375 -2.234375q-0.59375 -0.859375 -1.6875 -0.859375q-1.0 0 -1.625 0.84375q-0.609375 0.828125 -0.609375 2.25zm11.567856 -8.5l0 13.3125l-2.65625 0l0 -13.3125l2.65625 0zm6.544182 3.40625q2.140625 0 3.421875 1.484375q1.28125 1.46875 1.28125 3.75l-0.03125 0.484375l-6.953125 0q0.0625 1.25 0.65625 1.859375q0.59375 0.59375 1.703125 0.59375q0.71875 0 1.328125 -0.359375q0.609375 -0.375 0.78125 -0.890625l2.328125 0q-0.53125 1.640625 -1.65625 2.453125q-1.125 0.796875 -2.859375 0.796875q-2.234375 0 -3.5937424 -1.40625q-1.34375 -1.421875 -1.34375 -3.671875q0 -2.15625 1.375 -3.625q1.3906174 -1.46875 3.5624924 -1.46875zm-2.28125 4.046875l4.3125 0q-0.1875 -1.0625 -0.6875 -1.546875q-0.5 -0.5 -1.4375 -0.5q-0.96875 0 -1.53125 0.546875q-0.5625 0.546875 -0.65625 1.5zm12.494019 -4.046875q1.96875 0 3.03125 0.78125q1.078125 0.78125 1.21875 2.296875l-2.515625 0q-0.0625 -0.6875 -0.515625 -1.0q-0.453125 -0.3125 -1.3125 -0.3125q-0.75 0 -1.109375 0.234375q-0.34375 0.234375 -0.34375 0.671875q0 0.4375 0.453125 0.734375q0.46875 0.28125 1.859375 0.546875q2.21875 0.421875 2.96875 1.09375q0.765625 0.671875 0.765625 1.765625q0 1.640625 -1.203125 2.5q-1.1875 0.859375 -3.1875 0.859375q-2.015625 0 -3.234375 -0.84375q-1.21875 -0.859375 -1.3125 -2.5625l2.53125 0q0 0.765625 0.578125 1.203125q0.578125 0.421875 1.453125 0.421875q0.765625 0 1.25 -0.328125q0.484375 -0.328125 0.484375 -0.890625q0 -0.515625 -0.625 -0.828125q-0.625 -0.3125 -2.296875 -0.671875q-1.671875 -0.328125 -2.40625 -0.9375q-0.734375 -0.609375 -0.734375 -1.640625q0 -1.53125 1.078125 -2.3125q1.09375 -0.78125 3.125 -0.78125zm20.64125 -3.40625l0 13.3125l-2.515625 0l0 -1.234375l-0.03125 0q-0.4375 0.75 -1.1875 1.125q-0.75 0.375 -1.75 0.375q-1.96875 0 -3.15625 -1.453125q-1.171875 -1.453125 -1.171875 -3.71875q0 -2.15625 1.15625 -3.578125q1.171875 -1.421875 3.125 -1.421875q0.90625 0 1.640625 0.375q0.75 0.359375 1.203125 1.0625l0.046875 0l0 -4.84375l2.640625 0zm-7.15625 8.46875q0 1.359375 0.625 2.234375q0.625 0.875 1.703125 0.875q1.09375 0 1.6875 -0.8125q0.59375 -0.8125 0.59375 -2.296875q0 -1.421875 -0.578125 -2.234375q-0.578125 -0.828125 -1.71875 -0.828125q-1.09375 0 -1.703125 0.828125q-0.609375 0.8125 -0.609375 2.234375zm11.880356 -8.46875l0 2.171875l-2.65625 0l0 -2.171875l2.65625 0zm0 3.671875l0 9.640625l-2.65625 0l0 -9.640625l2.65625 0zm5.8879395 -3.671875q0.265625 0 0.71875 0.03125q0.46875 0.015625 0.6875 0.03125l0 1.984375q-0.265625 -0.03125 -0.515625 -0.046875q-0.234375 -0.015625 -0.453125 -0.015625q-0.546875 0 -0.78125 0.25q-0.234375 0.25 -0.234375 0.765625l0 0.671875l3.0 0l0 -0.671875q0 -1.5625 0.87501526 -2.28125q0.890625 -0.71875 2.359375 -0.71875q0.28125 0 0.78125 0.03125q0.5 0.03125 0.625 0.03125l0 1.984375q-0.265625 -0.03125 -0.515625 -0.046875q-0.234375 -0.015625 -0.453125 -0.015625q-0.578125 0 -0.796875 0.28125q-0.21875 0.265625 -0.21875 0.734375l0 0.671875l1.828125 0l0 1.765625l-1.828125 0l0 7.875l-2.6562653 0l0 -7.875l-3.0 0l0 7.875l-2.65625 0l0 -7.875l-1.578125 0l0 -1.765625l1.578125 0l0 -0.671875q0 -1.5 0.875 -2.25q0.875 -0.75 2.359375 -0.75zm12.525925 3.40625q2.140625 0 3.421875 1.484375q1.28125 1.46875 1.28125 3.75l-0.03125 0.484375l-6.953125 0q0.0625 1.25 0.65625 1.859375q0.59375 0.59375 1.703125 0.59375q0.71875 0 1.328125 -0.359375q0.609375 -0.375 0.78125 -0.890625l2.328125 0q-0.53125 1.640625 -1.65625 2.453125q-1.125 0.796875 -2.859375 0.796875q-2.234375 0 -3.59375 -1.40625q-1.34375 -1.421875 -1.34375 -3.671875q0 -2.15625 1.375 -3.625q1.390625 -1.46875 3.5625 -1.46875zm-2.28125 4.046875l4.3125 0q-0.1875 -1.0625 -0.6875 -1.546875q-0.5 -0.5 -1.4375 -0.5q-0.96875 0 -1.53125 0.546875q-0.5625 0.546875 -0.65625 1.5zm5.84375 -7.78125l-2.890625 2.65625l-1.828125 0l1.78125 -2.65625l2.9375 0zm8.306519 3.734375q0.1875 0 0.328125 0.03125q0.140625 0.015625 0.265625 0.0625l0 2.46875q-0.21875 -0.046875 -0.4375 -0.0625q-0.21875 -0.03125 -0.5 -0.03125q-1.34375 0 -1.984375 0.828125q-0.640625 0.8125 -0.640625 2.1875l0 4.421875l-2.640625 0l0 -9.640625l2.515625 0l0 1.78125l0.03125 0q0.421875 -0.9375 1.25 -1.484375q0.828125 -0.5625 1.8125 -0.5625zm5.958191 0q2.140625 0 3.421875 1.484375q1.28125 1.46875 1.28125 3.75l-0.03125 0.484375l-6.953125 0q0.0625 1.25 0.65625 1.859375q0.59375 0.59375 1.703125 0.59375q0.71875 0 1.328125 -0.359375q0.609375 -0.375 0.78125 -0.890625l2.328125 0q-0.53125 1.640625 -1.65625 2.453125q-1.125 0.796875 -2.859375 0.796875q-2.234375 0 -3.59375 -1.40625q-1.34375 -1.421875 -1.34375 -3.671875q0 -2.15625 1.375 -3.625q1.390625 -1.46875 3.5625 -1.46875zm-2.28125 4.046875l4.3125 0q-0.1875 -1.0625 -0.6875 -1.546875q-0.5 -0.5 -1.4375 -0.5q-0.96875 0 -1.53125 0.546875q-0.5625 0.546875 -0.65625 1.5zm14.072144 -4.046875q1.84375 0 2.671875 0.9375q0.84375 0.9375 0.84375 2.9375l0 6.03125l-2.65625 0l0 -5.53125q0 -1.125 -0.390625 -1.703125q-0.390625 -0.578125 -1.296875 -0.578125q-1.109375 0 -1.59375 0.65625q-0.46875 0.65625 -0.46875 2.015625l0 5.140625l-2.640625 0l0 -9.640625l2.515625 0l0 1.34375l0.046875 0q0.484375 -0.78125 1.25 -1.1875q0.78125 -0.421875 1.71875 -0.421875zm8.871429 -2.625l0 2.890625l1.9375 0l0 1.765625l-1.9375 0l0 4.84375q0 0.59375 0.21875 0.828125q0.234375 0.21875 0.90625 0.21875q0.234375 0 0.4375 -0.015625q0.203125 -0.015625 0.375 -0.046875l0 2.0625q-0.328125 0.0625 -0.734375 0.078125q-0.390625 0.015625 -0.796875 0.015625q-1.71875 0 -2.390625 -0.578125q-0.65625 -0.59375 -0.65625 -1.65625l0 -5.75l-1.609375 0l0 -1.765625l1.609375 0l0 -2.890625l2.640625 0zm7.5861816 2.625q2.140625 0 3.421875 1.484375q1.28125 1.46875 1.28125 3.75l-0.03125 0.484375l-6.953125 0q0.0625 1.25 0.65625 1.859375q0.59375 0.59375 1.703125 0.59375q0.71875 0 1.328125 -0.359375q0.609375 -0.375 0.78125 -0.890625l2.328125 0q-0.53125 1.640625 -1.65625 2.453125q-1.125 0.796875 -2.859375 0.796875q-2.234375 0 -3.59375 -1.40625q-1.34375 -1.421875 -1.34375 -3.671875q0 -2.15625 1.375 -3.625q1.390625 -1.46875 3.5625 -1.46875zm-2.28125 4.046875l4.3125 0q-0.1875 -1.0625 -0.6875 -1.546875q-0.5 -0.5 -1.4375 -0.5q-0.96875 0 -1.53125 0.546875q-0.5625 0.546875 -0.65625 1.5zm12.494019 -4.046875q1.96875 0 3.03125 0.78125q1.078125 0.78125 1.21875 2.296875l-2.515625 0q-0.0625 -0.6875 -0.515625 -1.0q-0.453125 -0.3125 -1.3125 -0.3125q-0.75 0 -1.109375 0.234375q-0.34375 0.234375 -0.34375 0.671875q0 0.4375 0.453125 0.734375q0.46875 0.28125 1.859375 0.546875q2.21875 0.421875 2.96875 1.09375q0.765625 0.671875 0.765625 1.765625q0 1.640625 -1.203125 2.5q-1.1875 0.859375 -3.1875 0.859375q-2.015625 0 -3.234375 -0.84375q-1.21875 -0.859375 -1.3125 -2.5625l2.53125 0q0 0.765625 0.578125 1.203125q0.578125 0.421875 1.453125 0.421875q0.765625 0 1.25 -0.328125q0.484375 -0.328125 0.484375 -0.890625q0 -0.515625 -0.625 -0.828125q-0.625 -0.3125 -2.296875 -0.671875q-1.671875 -0.328125 -2.40625 -0.9375q-0.734375 -0.609375 -0.734375 -1.640625q0 -1.53125 1.078125 -2.3125q1.09375 -0.78125 3.125 -0.78125zm9.020447 -3.40625l0 3.578125l-0.71875 5.75l-1.328125 0l-0.703125 -5.75l0 -3.578125l2.75 0zm0.09375 10.4375l0 2.875l-2.921875 0l0 -2.875l2.921875 0z" fill-rule="nonzero"/><path fill="#000000" fill-opacity="0.0" d="m158.18898 283.1614l15.62204 -92.34645" fill-rule="evenodd"/><path stroke="#666666" stroke-width="2.0" stroke-linejoin="round" stroke-linecap="butt" d="m158.18898 283.1614l13.620468 -80.51454" fill-rule="evenodd"/><path fill="#666666" stroke="#666666" stroke-width="2.0" stroke-linecap="butt" d="m175.06664 203.19786l-1.7433014 -9.500061l-4.7710724 8.398041z" fill-rule="evenodd"/><path fill="#000000" fill-opacity="0.0" d="m158.18898 322.05905l15.62204 80.66141" fill-rule="evenodd"/><path stroke="#666666" stroke-width="2.0" stroke-linejoin="round" stroke-linecap="butt" d="m158.18898 322.05905l13.340347 68.88034" fill-rule="evenodd"/><path fill="#666666" stroke="#666666" stroke-width="2.0" stroke-linecap="butt" d="m168.28613 391.5675l4.9689484 8.282501l1.5174408 -9.538727z" fill-rule="evenodd"/><path fill="#000000" fill-opacity="0.0" d="m436.2047 179.6811l357.51184 53.826767" fill-rule="evenodd"/><path stroke="#00ff00" stroke-width="4.0" stroke-linejoin="round" stroke-linecap="butt" d="m436.2047 179.6811l357.51184 53.826767" fill-rule="evenodd"/><path fill="#000000" fill-opacity="0.0" d="m526.50134 181.10498l356.0 53.007874" fill-rule="evenodd"/><path stroke="#00ff00" stroke-width="4.0" stroke-linejoin="round" stroke-linecap="butt" d="m526.50134 181.10498l356.0 53.007874" fill-rule="evenodd"/><path fill="#000000" fill-opacity="0.0" d="m348.70996 446.60367l444.50397 -80.50394" fill-rule="evenodd"/><path stroke="#00ff00" stroke-width="4.0" stroke-linejoin="round" stroke-linecap="butt" d="m348.70996 446.60367l444.50397 -80.50394" fill-rule="evenodd"/><path fill="#000000" fill-opacity="0.0" d="m348.21127 441.10498l356.00003 -76.0" fill-rule="evenodd"/><path stroke="#00ff00" stroke-width="4.0" stroke-linejoin="round" stroke-linecap="butt" d="m348.21127 441.10498l356.00003 -76.0" fill-rule="evenodd"/><path fill="#000000" fill-opacity="0.0" d="m348.5013 365.10498l178.01578 -43.496063" fill-rule="evenodd"/><path stroke="#00ff00" stroke-width="4.0" stroke-linejoin="round" stroke-linecap="butt" d="m348.5013 365.10498l178.01578 -43.496063" fill-rule="evenodd"/><path fill="#000000" fill-opacity="0.0" d="m348.5013 351.10498l89.51181 -27.496063" fill-rule="evenodd"/><path stroke="#00ff00" stroke-width="4.0" stroke-linejoin="round" stroke-linecap="butt" d="m348.5013 351.10498l89.51181 -27.496063" fill-rule="evenodd"/></g></svg>